<svg preserveAspectRatio="none" overflow="visible" style="display: block;" width="233.064" height="196.383" viewBox="0 0 233.064 196.383" fill="none" xmlns="http://www.w3.org/2000/svg">
<g id="Group 2">
<path id="Vector" fill-rule="evenodd" clip-rule="evenodd" d="M0.396516 128.468V57.6948C0.396516 57.6948 116.882 -0.49988 117.806 0.00324363L233.032 58.2818V128.971C233.032 128.971 233.284 130.145 232.361 130.648L118.73 195.97C117.89 196.473 116.463 196.473 115.623 195.97L0.984402 130.061C0.144561 129.558 0.396516 128.468 0.396516 128.468Z" fill="#EDEDED" fill-opacity="0.85"/>
<path id="Vector_2" fill-rule="evenodd" clip-rule="evenodd" d="M118.431 124.503L116.77 196.358C116.266 196.358 115.66 196.45 115.24 196.282L0.685592 130.373C-0.154249 129.87 0.0137193 128.696 0.0137193 128.696V58.0071L118.431 124.503Z" fill="#E3E3E3"/>
<path id="Vector_3" fill-rule="evenodd" clip-rule="evenodd" d="M143.88 134.864L215.134 95.0045V140.535L143.88 181.514V134.864Z" fill="#C4C4C4" fill-opacity="0.6"/>
<path id="Vector_4" fill-rule="evenodd" clip-rule="evenodd" d="M215.135 140.224L175.396 117.374L215.135 95.0045V140.224Z" fill="#797B84" fill-opacity="0.5"/>
</g>
</svg>
